<?xml version="1.0" standalone="no"?>
<!DOCTYPE svg PUBLIC "-//W3C//DTD SVG 20010904//EN"
 "http://www.w3.org/TR/2001/REC-SVG-20010904/DTD/svg10.dtd">
<svg version="1.0" xmlns="http://www.w3.org/2000/svg"
 width="850.000000pt" height="138.000000pt" viewBox="0 0 850.000000 138.000000"
 preserveAspectRatio="xMidYMid meet">

<g transform="translate(0.000000,138.000000) scale(0.100000,-0.100000)"
fill="#000000" stroke="none">
<path d="M1465 690 c0 -366 1 -515 2 -332 2 182 2 482 0 665 -1 182 -2 33 -2
-333z"/>
<path d="M423 1146 c-72 -18 -169 -68 -225 -116 -227 -196 -228 -567 -1 -770
98 -88 208 -130 343 -130 149 0 254 44 366 155 144 143 189 341 120 531 -90
248 -352 391 -603 330z m112 -150 c30 -52 55 -99 55 -105 0 -8 -64 -11 -210
-11 -142 0 -210 3 -210 11 0 6 24 34 53 64 56 56 131 100 207 121 25 7 46 13
47 13 1 1 27 -41 58 -93z m108 79 c32 -8 79 -26 105 -39 53 -27 142 -102 142
-120 0 -13 -86 -164 -105 -184 -9 -10 -31 21 -111 159 -54 95 -100 179 -102
186 -4 16 1 16 71 -2z m324 -303 c20 -70 21 -201 0 -257 l-14 -40 -112 -3
c-92 -2 -112 0 -109 11 7 29 202 356 210 351 4 -3 15 -31 25 -62z m-710 -138
c-56 -98 -106 -177 -112 -178 -5 -1 -18 22 -28 49 -20 57 -19 230 1 278 l12
27 114 0 115 0 -102 -176z m434 90 l46 -81 -50 -87 -50 -86 -93 0 -94 0 -35
54 c-19 30 -42 70 -51 88 l-16 35 47 82 48 82 101 -3 100 -3 47 -81z m-275
-345 c79 -133 99 -175 87 -178 -56 -12 -221 67 -287 137 l-29 31 54 95 c30 53
58 94 64 93 5 -2 55 -82 111 -178z m485 3 c-34 -63 -182 -160 -268 -176 -31
-5 -33 -4 -85 87 -29 50 -54 95 -56 99 -2 4 91 8 208 8 199 0 210 -1 201 -18z"/>
<path d="M2679 1050 c-56 -10 -76 -20 -111 -57 -42 -45 -60 -114 -65 -259 -12
-295 44 -400 221 -412 123 -8 200 30 249 122 21 38 22 54 22 246 0 193 -1 207
-22 247 -54 101 -149 137 -294 113z m128 -156 c34 -21 45 -83 41 -230 -3 -116
-6 -136 -24 -161 -43 -58 -133 -51 -159 12 -18 43 -21 296 -4 345 20 55 87 71
146 34z"/>
<path d="M3785 1051 c-135 -23 -177 -109 -176 -361 0 -288 52 -365 247 -365
83 0 95 2 140 30 37 23 56 43 77 85 25 50 28 69 32 186 9 233 -16 335 -96 390
-59 41 -127 51 -224 35z m138 -160 c20 -20 34 -110 32 -221 -3 -148 -16 -184
-76 -200 -51 -14 -79 -4 -106 37 -15 23 -18 50 -18 184 0 144 2 160 21 186 11
15 32 30 45 33 28 7 87 -4 102 -19z"/>
<path d="M7060 1050 l-205 -5 0 -65 0 -65 75 -5 75 -5 0 -277 c0 -152 4 -280
9 -285 11 -11 115 -8 127 4 5 5 10 133 12 284 l2 274 72 3 c82 3 87 9 81 92
-2 33 -8 44 -23 49 -11 3 -112 4 -225 1z"/>
<path d="M7504 1041 c-23 -10 -53 -34 -66 -52 -46 -61 -53 -101 -53 -294 0
-208 12 -263 70 -314 47 -41 97 -54 197 -50 73 4 90 8 125 32 23 16 53 51 69
80 l29 52 0 190 c0 210 -6 243 -58 302 -47 54 -97 73 -192 73 -57 0 -92 -6
-121 -19z m179 -141 c36 -29 47 -76 47 -205 0 -168 -18 -213 -88 -222 -50 -7
-85 8 -100 42 -17 37 -25 212 -13 289 12 85 37 116 91 116 22 0 48 -8 63 -20z"/>
<path d="M8105 1041 c-82 -37 -120 -111 -113 -219 4 -63 6 -67 50 -107 28 -25
72 -51 110 -65 35 -13 84 -34 111 -47 42 -21 47 -27 47 -56 0 -105 -157 -102
-179 3 -8 40 -41 54 -108 44 -42 -6 -43 -7 -43 -43 0 -92 65 -190 140 -211 19
-6 68 -10 108 -10 115 0 177 35 214 120 36 83 20 186 -37 240 -13 12 -70 40
-127 61 -56 22 -114 50 -127 64 -24 24 -25 25 -8 59 18 40 48 52 101 42 38 -7
59 -28 73 -71 10 -30 11 -30 79 -30 69 0 69 0 72 29 5 37 -23 108 -56 148 -41
48 -94 68 -187 68 -56 0 -92 -6 -120 -19z"/>
<path d="M1980 1031 c-6 -13 -10 -140 -10 -354 0 -374 -6 -347 73 -347 70 0
72 3 73 147 1 70 2 134 3 141 1 9 33 12 124 12 67 0 127 4 133 8 17 11 27 111
13 128 -9 11 -42 14 -140 14 l-129 0 0 60 0 59 138 3 137 3 0 70 0 70 -202 3
c-192 2 -203 1 -213 -17z"/>
<path d="M3087 1043 c-9 -8 -9 -106 -1 -127 5 -13 22 -16 81 -16 l74 0 -3
-270 c-2 -148 0 -277 5 -285 9 -17 122 -22 132 -6 3 6 6 134 7 285 l1 276 66
0 c39 0 72 5 79 12 7 7 12 35 12 63 0 28 -5 56 -12 63 -13 13 -429 18 -441 5z"/>
<path d="M4527 1044 c-4 -4 -7 -164 -7 -355 l0 -347 29 -7 c51 -11 381 -2 392
11 6 7 9 39 7 71 l-3 58 -143 3 -143 3 3 77 3 77 135 5 135 5 0 65 0 65 -132
3 -133 3 0 65 0 66 130 -3 c82 -2 134 1 140 7 6 6 10 38 8 70 l-3 59 -206 3
c-113 1 -208 -1 -212 -4z"/>
<path d="M5034 1036 c-6 -16 30 -138 132 -445 35 -107 64 -200 64 -208 0 -7 9
-22 20 -33 27 -27 110 -28 132 -2 9 9 35 71 58 137 23 66 45 129 50 141 21 54
120 385 120 403 0 19 -6 21 -64 21 -39 0 -68 -5 -74 -12 -5 -7 -26 -67 -46
-133 -21 -66 -53 -167 -73 -224 l-36 -103 -64 213 c-35 118 -68 224 -73 237
-9 20 -17 22 -75 22 -48 0 -67 -4 -71 -14z"/>
<path d="M5712 1038 c-9 -9 -12 -98 -12 -355 l0 -342 33 -6 c17 -4 113 -5 212
-3 l180 4 0 69 0 70 -137 3 -138 3 0 79 0 80 134 0 133 0 7 61 c3 34 3 65 0
70 -3 5 -66 9 -140 9 l-134 0 0 66 0 66 130 -3 c82 -2 134 1 140 7 6 6 10 38
8 70 l-3 59 -200 3 c-148 2 -204 -1 -213 -10z"/>
<path d="M6256 1042 c-10 -16 -8 -694 2 -704 5 -5 36 -8 68 -6 l59 3 3 200 2
200 63 -105 c128 -213 161 -265 175 -282 18 -22 120 -26 127 -5 8 23 13 684 6
696 -5 8 -30 11 -72 9 l-64 -3 -5 -200 -5 -200 -64 110 c-36 61 -90 151 -120
202 l-56 92 -57 1 c-31 0 -59 -4 -62 -8z"/>
</g>
</svg>
