<svg version="1.1" id="Layer_1" xmlns="http://www.w3.org/2000/svg" xmlns:xlink="http://www.w3.org/1999/xlink" x="0px" y="0px"
	 width="100%" viewBox="0 0 1200 1200" enable-background="new 0 0 1200 1200" xml:space="preserve">
<path fill="#000000" opacity="1.000000" stroke="none" 
	d="
M1053.000000,1201.000000 
	C702.000000,1201.000000 351.500000,1201.000000 1.000000,1201.000000 
	C1.000000,801.000000 1.000000,401.000000 1.000000,1.000000 
	C401.000000,1.000000 801.000000,1.000000 1201.000000,1.000000 
	C1201.000000,401.000000 1201.000000,801.000000 1201.000000,1201.000000 
	C1151.833374,1201.000000 1102.666626,1201.000000 1053.000000,1201.000000 
M261.970703,645.545654 
	C277.186951,632.472046 282.882080,615.399109 279.742218,596.270142 
	C275.465912,570.217224 249.959641,549.710571 221.250458,553.921326 
	C207.111328,555.995056 195.605316,562.052063 186.963898,573.514099 
	C173.682556,591.130554 171.757278,610.427307 181.523346,629.625183 
	C196.621155,659.304260 235.343353,667.773376 261.970703,645.545654 
M798.000000,628.441528 
	C798.000000,631.096558 798.000000,633.751526 798.000000,636.800110 
	C801.930359,637.209534 805.772217,638.119873 809.491821,637.761536 
	C811.119568,637.604736 813.675903,634.932129 813.785034,633.269043 
	C814.262085,626.000305 813.996887,618.682861 813.999756,611.383057 
	C814.001221,607.733093 814.000000,604.083069 814.000000,599.244995 
	C821.226807,611.528320 827.704529,622.597900 834.253296,633.625183 
	C835.770996,636.180664 846.004639,639.277771 848.454895,637.669373 
	C849.711609,636.844421 850.883179,634.818787 850.893677,633.327271 
	C851.048096,611.500244 851.028137,589.671570 850.926270,567.843933 
	C850.920471,566.598022 849.860535,564.291260 849.273438,564.285461 
	C845.220215,564.245422 841.133545,564.500000 837.128723,565.119995 
	C836.269958,565.252930 835.145020,567.244446 835.096497,568.419189 
	C834.877258,573.730774 835.000122,579.056396 835.000000,584.377014 
	C834.999878,590.098755 835.000000,595.820496 835.000000,601.542236 
	C828.824707,592.673462 823.514587,583.579651 818.115417,574.539001 
	C814.822876,569.025879 812.660767,562.098877 803.711609,563.910156 
	C800.045532,564.652039 797.862183,565.513367 797.910828,569.969482 
	C798.119751,589.129333 798.000000,608.292725 798.000000,628.441528 
M958.979370,574.764709 
	C953.027283,563.544739 942.387268,562.046204 931.648621,563.233948 
	C920.762939,564.437988 913.685791,570.568115 912.819519,581.757568 
	C911.977112,592.638367 911.671387,603.627808 912.139954,614.526123 
	C912.734131,628.347656 918.746826,638.338196 937.175171,638.188354 
	C952.716431,638.062012 962.118652,628.211426 962.011597,613.085632 
	C961.947937,604.090881 962.270874,595.083069 961.865784,586.106140 
	C961.705261,582.549561 960.043579,579.060608 958.979370,574.764709 
M473.998474,619.157837 
	C474.332306,615.580688 474.990540,611.998474 474.934967,608.427429 
	C474.804230,600.021179 474.938690,591.539246 473.828156,583.240112 
	C472.725861,575.002869 468.151306,567.115112 459.296997,565.124817 
	C454.571136,564.062561 449.549377,564.124573 444.655243,564.045532 
	C435.911194,563.904297 428.431641,569.182739 426.060120,577.576477 
	C421.808563,592.624268 422.412445,607.882507 425.591370,622.990417 
	C427.254456,630.894165 432.327850,636.410828 440.630096,637.741394 
	C444.687225,638.391541 448.919556,637.985046 453.072662,637.990967 
	C458.632690,637.998901 463.910736,636.762085 467.285004,632.061218 
	C469.942139,628.359436 471.777466,624.067749 473.998474,619.157837 
M535.946594,621.538330 
	C536.892517,628.021606 539.626343,633.869507 546.038940,635.783386 
	C551.836365,637.513733 558.189270,637.664551 564.322205,637.926575 
	C574.701721,638.369995 582.924255,630.414185 583.704651,621.256348 
	C584.842712,607.900085 584.360168,594.361145 583.852539,580.927185 
	C583.581970,573.765869 576.296814,566.410461 569.096130,565.071228 
	C564.632996,564.241150 560.003967,564.144470 555.442017,564.039368 
	C547.036865,563.845703 540.554016,567.401184 537.430298,575.303589 
	C535.625305,579.869995 534.237427,584.931946 534.178467,589.789307 
	C534.052673,600.151550 534.914612,610.525757 535.946594,621.538330 
M1018.068909,573.549500 
	C1011.596924,561.157166 994.797791,561.244141 984.231384,565.094238 
	C976.131226,568.045715 972.795471,575.159302 972.009705,583.456604 
	C971.137024,592.671082 974.955994,599.250977 983.399597,603.015320 
	C989.236816,605.617676 995.329773,607.709351 1000.945862,610.708252 
	C1002.747253,611.670227 1004.588379,614.974548 1004.310669,616.904968 
	C1003.750977,620.795227 1000.790222,623.153320 996.423523,622.804688 
	C990.374329,622.321838 988.553040,617.885498 986.905518,613.014404 
	C986.483826,611.767578 984.633667,610.114014 983.498230,610.157837 
	C979.361755,610.317566 975.248291,611.105347 971.138184,611.734985 
	C971.023193,611.752625 970.987244,612.659790 971.010132,613.147583 
	C971.355652,620.524780 973.139221,627.150330 978.884094,632.517151 
	C984.771912,638.017456 991.765076,638.010315 998.990784,638.023010 
	C1013.319641,638.048157 1020.234070,628.142944 1020.904297,616.404968 
	C1021.544983,605.185181 1016.408997,599.117859 1004.423035,594.952698 
	C999.768494,593.335144 995.068359,591.602722 990.797119,589.197754 
	C986.565063,586.814819 987.116211,582.116516 991.446777,579.903198 
	C996.951660,577.089722 1002.863892,579.404724 1005.025574,585.065857 
	C1005.679077,586.777161 1006.707031,589.570007 1007.782715,589.677795 
	C1011.825317,590.082581 1016.455322,590.691284 1019.928101,589.133850 
	C1023.995300,587.309937 1021.178772,582.707153 1020.877197,579.366821 
	C1020.713562,577.554321 1019.405090,575.845215 1018.068909,573.549500 
M655.330811,591.000000 
	C650.578918,591.000000 645.827087,591.000000 641.340393,591.000000 
	C641.340393,586.910767 641.340393,583.507385 641.340393,580.000000 
	C648.828491,580.000000 655.989258,579.743652 663.120239,580.093323 
	C667.613831,580.313660 669.691345,579.168335 669.062866,574.333191 
	C668.704285,571.575378 669.823975,568.355225 668.774414,566.018616 
	C667.065063,562.213013 663.432190,564.966675 660.583496,564.904541 
	C650.363037,564.681641 640.144165,564.118164 629.928833,564.200256 
	C628.276245,564.213501 625.370361,566.736511 625.228699,568.297791 
	C624.675842,574.390381 625.000488,580.562744 625.000305,586.705444 
	C624.999878,602.184631 625.039368,617.664062 624.963196,633.142883 
	C624.949768,635.865540 625.821533,637.055847 628.686646,637.037476 
	C641.981323,636.952087 655.276917,636.999695 669.275391,636.999695 
	C669.527039,633.240479 669.970703,629.713562 669.896057,626.197571 
	C669.866333,624.797119 668.830139,622.316101 668.013550,622.212769 
	C662.648865,621.533630 657.219604,621.137878 651.809998,621.121216 
	C648.323486,621.110535 644.834595,621.903137 641.257568,622.346741 
	C641.257568,616.742126 641.257568,612.006287 641.257568,607.000000 
	C646.143188,607.000000 650.774170,607.003845 655.405090,606.999268 
	C670.709595,606.984253 668.994202,608.706116 668.938354,593.027588 
	C668.937378,592.755615 668.629761,592.484619 668.565125,592.377930 
	C664.387573,591.909058 660.338013,591.454529 655.330811,591.000000 
M760.711243,607.003906 
	C764.874939,607.002625 769.038696,607.000305 773.202393,607.000183 
	C787.291565,606.999695 787.293945,606.999939 786.948669,593.149231 
	C786.941528,592.862671 786.688904,592.582275 786.434692,592.060791 
	C777.405640,591.571777 768.263611,591.076599 759.320435,590.592224 
	C759.320435,586.954712 759.320435,583.548401 759.320435,579.949524 
	C768.601257,579.949524 777.563843,579.949524 787.278809,579.949524 
	C787.526062,576.106873 787.914551,572.426758 787.957703,568.742615 
	C788.001892,564.965942 786.071533,563.326050 782.248962,564.329285 
	C781.316040,564.574158 780.365173,564.989380 779.433167,564.962280 
	C769.869141,564.684631 760.298584,564.484070 750.748291,563.939270 
	C745.548279,563.642639 743.841431,565.309753 743.889771,570.850769 
	C743.967407,579.759888 743.257446,588.673279 743.028564,597.588684 
	C742.887573,603.080627 743.018799,608.579590 743.033875,614.075439 
	C743.049866,619.905334 743.255920,625.742554 743.024414,631.562439 
	C742.885803,635.047607 743.060059,637.225708 747.583740,637.091797 
	C757.567749,636.796265 767.566528,637.000000 777.559326,637.000000 
	C788.508301,637.000000 789.077393,636.360535 788.001465,625.285156 
	C787.953491,624.791321 788.116211,624.180603 787.880188,623.822510 
	C787.447388,623.165894 786.824524,622.203613 786.220886,622.157654 
	C780.668640,621.734985 775.104736,621.285950 769.541809,621.252136 
	C766.179626,621.231628 762.813049,621.931946 758.640259,622.398804 
	C759.048340,616.742188 759.397766,611.898926 760.711243,607.003906 
M690.043884,611.414734 
	C692.033691,617.838135 693.973328,624.277649 696.032166,630.678833 
	C697.268250,634.521606 698.739502,637.997864 704.062744,637.082886 
	C706.806946,636.611206 709.699036,637.000000 712.715454,637.000000 
	C713.841614,634.258667 715.102539,631.655945 715.998352,628.933167 
	C722.055786,610.520874 727.841919,592.016846 734.110596,573.677429 
	C738.165222,561.815308 735.024475,564.099609 727.205566,563.946838 
	C723.368958,563.871887 720.317139,564.793701 719.106689,568.697144 
	C716.638977,576.655273 714.470825,584.707214 711.946838,592.646606 
	C710.196594,598.151917 708.057922,603.533752 705.650696,610.193909 
	C701.129944,594.852539 697.103699,581.008606 692.890381,567.221924 
	C692.540100,566.075928 691.009766,564.642090 689.883240,564.501709 
	C686.289856,564.054016 682.577087,563.782471 679.025452,564.274048 
	C677.996033,564.416504 676.303528,567.670227 676.694275,568.957642 
	C680.925415,582.898254 685.511780,596.731140 690.043884,611.414734 
M387.709503,607.003967 
	C392.042328,607.002625 396.375183,607.000305 400.708008,607.000122 
	C414.850403,606.999695 414.851227,606.999939 413.924683,592.746094 
	C413.916504,592.620239 413.710785,592.507202 413.216705,591.989014 
	C404.528015,591.989014 395.447479,591.989014 386.206848,591.989014 
	C386.206848,587.851013 386.206848,584.113159 386.206848,580.010498 
	C395.506836,580.010498 404.606659,580.010498 413.939758,580.010498 
	C414.322540,577.130676 414.902405,574.587280 414.953796,572.033142 
	C415.095337,565.002258 415.004974,565.125305 407.985901,564.969360 
	C398.574341,564.760193 389.136292,563.798218 379.778809,564.344421 
	C377.146881,564.498047 371.079773,562.087280 370.962555,569.010376 
	C370.766357,580.597107 370.224274,592.178101 370.033417,603.764832 
	C369.871643,613.585876 369.972168,623.411865 370.042023,633.235107 
	C370.049591,634.296997 370.544739,636.241455 370.949860,636.278198 
	C375.347839,636.677795 379.812073,637.131470 384.156982,636.652222 
	C384.995941,636.559631 385.798798,632.519470 385.926971,630.261108 
	C386.365448,622.535645 386.495972,614.792725 387.709503,607.003967 
M895.426147,564.000000 
	C884.602051,564.000061 873.773132,563.841309 862.958862,564.167236 
	C861.292236,564.217407 858.237000,566.606445 858.322449,567.722351 
	C858.638672,571.848572 859.948242,575.909912 861.092651,579.936462 
	C861.169861,580.208191 862.970337,579.997559 863.969360,579.998657 
	C867.240356,580.002258 870.511414,580.000000 874.000000,580.000000 
	C874.000000,596.009216 873.919739,611.471313 874.026306,626.932068 
	C874.106873,638.625977 872.060486,636.758179 884.465942,637.037292 
	C888.509216,637.128235 890.076782,635.456543 890.045349,631.437500 
	C889.930664,616.784241 890.000000,602.129517 890.000000,587.475342 
	C890.000000,585.045715 890.000000,582.616028 890.000000,580.000000 
	C892.896912,580.000000 895.210144,580.000061 897.523376,580.000000 
	C904.999878,579.999939 905.018005,579.999817 904.995544,572.437073 
	C904.967163,562.872437 906.029541,564.069702 895.426147,564.000000 
M498.502136,565.000000 
	C493.184662,565.000000 487.867188,565.000000 481.894226,565.000000 
	C481.894226,570.037476 481.894226,574.882019 481.894226,580.123047 
	C487.254425,580.123047 492.001831,580.123047 497.000000,580.123047 
	C497.000000,582.151428 497.000000,583.787048 497.000000,585.422729 
	C497.000031,601.070557 497.039368,616.718628 496.963104,632.366089 
	C496.949707,635.120117 497.397339,637.525269 500.471191,637.909424 
	C503.078156,638.235229 505.825226,638.198547 508.409882,637.747070 
	C511.460510,637.214294 513.225403,635.789734 513.140137,631.826843 
	C512.800232,616.019775 512.994019,600.201233 513.010132,584.386902 
	C513.011597,582.960327 513.155579,581.533875 513.239258,580.000000 
	C514.971252,580.000000 516.293152,580.025146 517.613892,579.996033 
	C529.654602,579.730774 527.762390,582.388855 528.036682,568.860413 
	C528.116211,564.938110 525.496399,564.048035 522.672546,564.084229 
	C514.946167,564.183228 507.224762,564.667969 498.502136,565.000000 
M319.000000,662.365356 
	C319.000031,663.197571 318.835144,664.073242 319.039978,664.851562 
	C319.324432,665.932251 319.886322,666.939941 320.329407,667.978882 
	C320.886230,666.887329 321.499237,665.819336 321.971069,664.692261 
	C322.148926,664.267395 322.000000,663.705688 322.000000,663.206360 
	C322.000000,621.761414 322.000031,580.316528 321.999908,538.871582 
	C321.999908,537.872925 322.198975,536.816284 321.932800,535.894226 
	C321.726807,535.180847 320.937378,534.635925 320.407318,534.016113 
	C319.938904,534.697815 319.215759,535.327026 319.061737,536.073608 
	C318.831207,537.191284 319.000092,538.391541 319.000092,539.556641 
	C318.999969,580.169373 319.000000,620.782043 319.000000,662.365356 
z"/>
<path fill="#FFFFFF" opacity="1.000000" stroke="none" 
	d="
M261.706635,645.791138 
	C235.343353,667.773376 196.621155,659.304260 181.523346,629.625183 
	C171.757278,610.427307 173.682556,591.130554 186.963898,573.514099 
	C195.605316,562.052063 207.111328,555.995056 221.250458,553.921326 
	C249.959641,549.710571 275.465912,570.217224 279.742218,596.270142 
	C282.882080,615.399109 277.186951,632.472046 261.706635,645.791138 
M233.232162,622.000000 
	C236.509827,622.912659 238.361710,620.994507 239.854843,618.554932 
	C241.276398,616.232300 242.421249,613.731689 243.939011,611.478516 
	C246.559982,607.587708 246.985031,604.143860 243.764160,600.115601 
	C241.192139,596.898987 239.573883,592.919800 237.375778,589.000000 
	C233.187042,589.000000 228.670517,589.354065 224.238754,588.893188 
	C220.371384,588.491089 218.096832,589.990051 216.411896,593.125366 
	C214.897354,595.943542 213.640121,598.958618 211.751450,601.502258 
	C209.448898,604.603333 210.321777,606.711792 211.756271,610.111938 
	C215.777374,619.643005 221.832001,624.261719 233.232162,622.000000 
M228.446426,638.956665 
	C230.567413,642.313782 232.688400,645.670898 234.830887,649.062012 
	C247.025024,646.610779 256.854431,640.734863 264.342834,630.354431 
	C250.463303,630.354431 237.300095,630.354431 223.968384,630.354431 
	C225.442245,633.244202 226.735901,635.780579 228.446426,638.956665 
M198.467514,589.000000 
	C194.819687,589.000000 191.171860,589.000000 187.617493,589.000000 
	C181.752182,602.941345 184.381134,616.609863 189.056580,623.962769 
	C195.761124,612.299866 202.354324,600.830688 209.155334,589.000000 
	C205.421722,589.000000 202.427643,589.000000 198.467514,589.000000 
M238.966202,574.624207 
	C243.109085,582.021729 247.251968,589.419189 251.729538,597.414246 
	C255.551895,590.966553 259.206024,584.802673 262.848816,578.657898 
	C254.824509,568.197021 239.671753,561.289490 231.831009,562.854675 
	C234.088989,566.622742 236.302963,570.317322 238.966202,574.624207 
M202.576843,569.950073 
	C198.988327,573.296997 195.399811,576.643982 190.926178,580.816406 
	C205.614227,580.816406 218.676834,580.816406 232.429321,580.816406 
	C228.660492,574.187988 225.139008,567.994568 221.320557,561.278809 
	C214.981812,564.100830 209.029770,566.750732 202.576843,569.950073 
M215.076721,647.596985 
	C217.965179,648.124878 220.853622,648.652771 224.891907,649.390747 
	C217.728378,637.163391 211.268692,626.137390 204.374649,614.369995 
	C200.741852,620.446411 197.349655,626.008179 194.135559,631.671021 
	C193.816559,632.233032 194.327530,633.641418 194.887848,634.268921 
	C200.251572,640.275330 206.368271,645.183838 215.076721,647.596985 
M263.483887,594.011719 
	C258.104126,603.264160 252.724350,612.516602 247.210342,621.999939 
	C253.546890,621.999939 259.534332,621.841980 265.506775,622.072510 
	C268.138214,622.174133 269.293396,621.127014 269.999023,618.839233 
	C273.348846,607.978516 272.466095,597.459412 267.631226,587.039124 
	C266.346313,589.275391 265.154480,591.349670 263.483887,594.011719 
z"/>
<path fill="#FFFFFF" opacity="1.000000" stroke="none" 
	d="
M798.000000,627.948181 
	C798.000000,608.292725 798.119751,589.129333 797.910828,569.969482 
	C797.862183,565.513367 800.045532,564.652039 803.711609,563.910156 
	C812.660767,562.098877 814.822876,569.025879 818.115417,574.539001 
	C823.514587,583.579651 828.824707,592.673462 835.000000,601.542236 
	C835.000000,595.820496 834.999878,590.098755 835.000000,584.377014 
	C835.000122,579.056396 834.877258,573.730774 835.096497,568.419189 
	C835.145020,567.244446 836.269958,565.252930 837.128723,565.119995 
	C841.133545,564.500000 845.220215,564.245422 849.273438,564.285461 
	C849.860535,564.291260 850.920471,566.598022 850.926270,567.843933 
	C851.028137,589.671570 851.048096,611.500244 850.893677,633.327271 
	C850.883179,634.818787 849.711609,636.844421 848.454895,637.669373 
	C846.004639,639.277771 835.770996,636.180664 834.253296,633.625183 
	C827.704529,622.597900 821.226807,611.528320 814.000000,599.244995 
	C814.000000,604.083069 814.001221,607.733093 813.999756,611.383057 
	C813.996887,618.682861 814.262085,626.000305 813.785034,633.269043 
	C813.675903,634.932129 811.119568,637.604736 809.491821,637.761536 
	C805.772217,638.119873 801.930359,637.209534 798.000000,636.800110 
	C798.000000,633.751526 798.000000,631.096558 798.000000,627.948181 
z"/>
<path fill="#FFFFFF" opacity="1.000000" stroke="none" 
	d="
M959.022339,575.152832 
	C960.043579,579.060608 961.705261,582.549561 961.865784,586.106140 
	C962.270874,595.083069 961.947937,604.090881 962.011597,613.085632 
	C962.118652,628.211426 952.716431,638.062012 937.175171,638.188354 
	C918.746826,638.338196 912.734131,628.347656 912.139954,614.526123 
	C911.671387,603.627808 911.977112,592.638367 912.819519,581.757568 
	C913.685791,570.568115 920.762939,564.437988 931.648621,563.233948 
	C942.387268,562.046204 953.027283,563.544739 959.022339,575.152832 
M928.218018,583.257812 
	C928.144836,593.849365 928.075623,604.440918 927.996765,615.032471 
	C927.961121,619.818665 931.330444,622.099915 935.101685,622.775146 
	C939.797791,623.615967 944.559875,620.195984 944.888550,615.877563 
	C945.586792,606.705444 946.164429,597.460571 945.710205,588.299194 
	C945.553955,585.148315 942.849121,580.725464 940.111572,579.447571 
	C936.520020,577.770996 931.581665,578.118958 928.218018,583.257812 
z"/>
<path fill="#FFFFFF" opacity="1.000000" stroke="none" 
	d="
M473.988159,619.597961 
	C471.777466,624.067749 469.942139,628.359436 467.285004,632.061218 
	C463.910736,636.762085 458.632690,637.998901 453.072662,637.990967 
	C448.919556,637.985046 444.687225,638.391541 440.630096,637.741394 
	C432.327850,636.410828 427.254456,630.894165 425.591370,622.990417 
	C422.412445,607.882507 421.808563,592.624268 426.060120,577.576477 
	C428.431641,569.182739 435.911194,563.904297 444.655243,564.045532 
	C449.549377,564.124573 454.571136,564.062561 459.296997,565.124817 
	C468.151306,567.115112 472.725861,575.002869 473.828156,583.240112 
	C474.938690,591.539246 474.804230,600.021179 474.934967,608.427429 
	C474.990540,611.998474 474.332306,615.580688 473.988159,619.597961 
M455.976227,582.769348 
	C453.599304,579.032837 449.602722,578.152588 446.118408,579.284241 
	C443.714233,580.064941 440.823883,583.121216 440.394135,585.556519 
	C438.522095,596.165649 437.980255,606.853088 440.806854,617.538940 
	C441.873810,621.572449 444.351410,622.727722 447.749512,622.960571 
	C453.930206,623.383972 457.888885,619.422058 457.978912,612.778076 
	C458.073059,605.830261 458.178284,598.873352 457.912842,591.934448 
	C457.805664,589.131714 456.728424,586.366089 455.976227,582.769348 
z"/>
<path fill="#FFFFFF" opacity="1.000000" stroke="none" 
	d="
M535.659180,621.216675 
	C534.914612,610.525757 534.052673,600.151550 534.178467,589.789307 
	C534.237427,584.931946 535.625305,579.869995 537.430298,575.303589 
	C540.554016,567.401184 547.036865,563.845703 555.442017,564.039368 
	C560.003967,564.144470 564.632996,564.241150 569.096130,565.071228 
	C576.296814,566.410461 583.581970,573.765869 583.852539,580.927185 
	C584.360168,594.361145 584.842712,607.900085 583.704651,621.256348 
	C582.924255,630.414185 574.701721,638.369995 564.322205,637.926575 
	C558.189270,637.664551 551.836365,637.513733 546.038940,635.783386 
	C539.626343,633.869507 536.892517,628.021606 535.659180,621.216675 
M550.000000,597.535767 
	C550.000000,602.351379 549.918823,607.168762 550.021240,611.982239 
	C550.140686,617.590576 553.270630,622.502563 556.860962,622.998230 
	C562.967834,623.841309 566.983154,621.377380 568.049866,614.267273 
	C569.140259,606.998718 568.983093,599.503906 568.882141,592.114807 
	C568.841980,589.178345 567.681885,586.190613 566.681335,583.349548 
	C565.221619,579.204651 561.470703,578.723755 557.927429,579.108582 
	C554.402466,579.491455 551.441040,581.295654 551.008545,585.402039 
	C550.617676,589.113037 550.332092,592.835083 550.000000,597.535767 
z"/>
<path fill="#FFFFFF" opacity="1.000000" stroke="none" 
	d="
M1018.340942,573.819458 
	C1019.405090,575.845215 1020.713562,577.554321 1020.877197,579.366821 
	C1021.178772,582.707153 1023.995300,587.309937 1019.928101,589.133850 
	C1016.455322,590.691284 1011.825317,590.082581 1007.782715,589.677795 
	C1006.707031,589.570007 1005.679077,586.777161 1005.025574,585.065857 
	C1002.863892,579.404724 996.951660,577.089722 991.446777,579.903198 
	C987.116211,582.116516 986.565063,586.814819 990.797119,589.197754 
	C995.068359,591.602722 999.768494,593.335144 1004.423035,594.952698 
	C1016.408997,599.117859 1021.544983,605.185181 1020.904297,616.404968 
	C1020.234070,628.142944 1013.319641,638.048157 998.990784,638.023010 
	C991.765076,638.010315 984.771912,638.017456 978.884094,632.517151 
	C973.139221,627.150330 971.355652,620.524780 971.010132,613.147583 
	C970.987244,612.659790 971.023193,611.752625 971.138184,611.734985 
	C975.248291,611.105347 979.361755,610.317566 983.498230,610.157837 
	C984.633667,610.114014 986.483826,611.767578 986.905518,613.014404 
	C988.553040,617.885498 990.374329,622.321838 996.423523,622.804688 
	C1000.790222,623.153320 1003.750977,620.795227 1004.310669,616.904968 
	C1004.588379,614.974548 1002.747253,611.670227 1000.945862,610.708252 
	C995.329773,607.709351 989.236816,605.617676 983.399597,603.015320 
	C974.955994,599.250977 971.137024,592.671082 972.009705,583.456604 
	C972.795471,575.159302 976.131226,568.045715 984.231384,565.094238 
	C994.797791,561.244141 1011.596924,561.157166 1018.340942,573.819458 
z"/>
<path fill="#FFFFFF" opacity="1.000000" stroke="none" 
	d="
M655.809692,591.000000 
	C660.338013,591.454529 664.387573,591.909058 668.565125,592.377930 
	C668.629761,592.484619 668.937378,592.755615 668.938354,593.027588 
	C668.994202,608.706116 670.709595,606.984253 655.405090,606.999268 
	C650.774170,607.003845 646.143188,607.000000 641.257568,607.000000 
	C641.257568,612.006287 641.257568,616.742126 641.257568,622.346741 
	C644.834595,621.903137 648.323486,621.110535 651.809998,621.121216 
	C657.219604,621.137878 662.648865,621.533630 668.013550,622.212769 
	C668.830139,622.316101 669.866333,624.797119 669.896057,626.197571 
	C669.970703,629.713562 669.527039,633.240479 669.275391,636.999695 
	C655.276917,636.999695 641.981323,636.952087 628.686646,637.037476 
	C625.821533,637.055847 624.949768,635.865540 624.963196,633.142883 
	C625.039368,617.664062 624.999878,602.184631 625.000305,586.705444 
	C625.000488,580.562744 624.675842,574.390381 625.228699,568.297791 
	C625.370361,566.736511 628.276245,564.213501 629.928833,564.200256 
	C640.144165,564.118164 650.363037,564.681641 660.583496,564.904541 
	C663.432190,564.966675 667.065063,562.213013 668.774414,566.018616 
	C669.823975,568.355225 668.704285,571.575378 669.062866,574.333191 
	C669.691345,579.168335 667.613831,580.313660 663.120239,580.093323 
	C655.989258,579.743652 648.828491,580.000000 641.340393,580.000000 
	C641.340393,583.507385 641.340393,586.910767 641.340393,591.000000 
	C645.827087,591.000000 650.578918,591.000000 655.809692,591.000000 
z"/>
<path fill="#FFFFFF" opacity="1.000000" stroke="none" 
	d="
M760.229187,607.029785 
	C759.397766,611.898926 759.048340,616.742188 758.640259,622.398804 
	C762.813049,621.931946 766.179626,621.231628 769.541809,621.252136 
	C775.104736,621.285950 780.668640,621.734985 786.220886,622.157654 
	C786.824524,622.203613 787.447388,623.165894 787.880188,623.822510 
	C788.116211,624.180603 787.953491,624.791321 788.001465,625.285156 
	C789.077393,636.360535 788.508301,637.000000 777.559326,637.000000 
	C767.566528,637.000000 757.567749,636.796265 747.583740,637.091797 
	C743.060059,637.225708 742.885803,635.047607 743.024414,631.562439 
	C743.255920,625.742554 743.049866,619.905334 743.033875,614.075439 
	C743.018799,608.579590 742.887573,603.080627 743.028564,597.588684 
	C743.257446,588.673279 743.967407,579.759888 743.889771,570.850769 
	C743.841431,565.309753 745.548279,563.642639 750.748291,563.939270 
	C760.298584,564.484070 769.869141,564.684631 779.433167,564.962280 
	C780.365173,564.989380 781.316040,564.574158 782.248962,564.329285 
	C786.071533,563.326050 788.001892,564.965942 787.957703,568.742615 
	C787.914551,572.426758 787.526062,576.106873 787.278809,579.949524 
	C777.563843,579.949524 768.601257,579.949524 759.320435,579.949524 
	C759.320435,583.548401 759.320435,586.954712 759.320435,590.592224 
	C768.263611,591.076599 777.405640,591.571777 786.434692,592.060791 
	C786.688904,592.582275 786.941528,592.862671 786.948669,593.149231 
	C787.293945,606.999939 787.291565,606.999695 773.202393,607.000183 
	C769.038696,607.000305 764.874939,607.002625 760.229187,607.029785 
z"/>
<path fill="#FFFFFF" opacity="1.000000" stroke="none" 
	d="
M690.022461,611.004028 
	C685.511780,596.731140 680.925415,582.898254 676.694275,568.957642 
	C676.303528,567.670227 677.996033,564.416504 679.025452,564.274048 
	C682.577087,563.782471 686.289856,564.054016 689.883240,564.501709 
	C691.009766,564.642090 692.540100,566.075928 692.890381,567.221924 
	C697.103699,581.008606 701.129944,594.852539 705.650696,610.193909 
	C708.057922,603.533752 710.196594,598.151917 711.946838,592.646606 
	C714.470825,584.707214 716.638977,576.655273 719.106689,568.697144 
	C720.317139,564.793701 723.368958,563.871887 727.205566,563.946838 
	C735.024475,564.099609 738.165222,561.815308 734.110596,573.677429 
	C727.841919,592.016846 722.055786,610.520874 715.998352,628.933167 
	C715.102539,631.655945 713.841614,634.258667 712.715454,637.000000 
	C709.699036,637.000000 706.806946,636.611206 704.062744,637.082886 
	C698.739502,637.997864 697.268250,634.521606 696.032166,630.678833 
	C693.973328,624.277649 692.033691,617.838135 690.022461,611.004028 
z"/>
<path fill="#FFFFFF" opacity="1.000000" stroke="none" 
	d="
M387.226746,607.030212 
	C386.495972,614.792725 386.365448,622.535645 385.926971,630.261108 
	C385.798798,632.519470 384.995941,636.559631 384.156982,636.652222 
	C379.812073,637.131470 375.347839,636.677795 370.949860,636.278198 
	C370.544739,636.241455 370.049591,634.296997 370.042023,633.235107 
	C369.972168,623.411865 369.871643,613.585876 370.033417,603.764832 
	C370.224274,592.178101 370.766357,580.597107 370.962555,569.010376 
	C371.079773,562.087280 377.146881,564.498047 379.778809,564.344421 
	C389.136292,563.798218 398.574341,564.760193 407.985901,564.969360 
	C415.004974,565.125305 415.095337,565.002258 414.953796,572.033142 
	C414.902405,574.587280 414.322540,577.130676 413.939758,580.010498 
	C404.606659,580.010498 395.506836,580.010498 386.206848,580.010498 
	C386.206848,584.113159 386.206848,587.851013 386.206848,591.989014 
	C395.447479,591.989014 404.528015,591.989014 413.216705,591.989014 
	C413.710785,592.507202 413.916504,592.620239 413.924683,592.746094 
	C414.851227,606.999939 414.850403,606.999695 400.708008,607.000122 
	C396.375183,607.000305 392.042328,607.002625 387.226746,607.030212 
z"/>
<path fill="#FFFFFF" opacity="1.000000" stroke="none" 
	d="
M895.912598,564.000000 
	C906.029541,564.069702 904.967163,562.872437 904.995544,572.437073 
	C905.018005,579.999817 904.999878,579.999939 897.523376,580.000000 
	C895.210144,580.000061 892.896912,580.000000 890.000000,580.000000 
	C890.000000,582.616028 890.000000,585.045715 890.000000,587.475342 
	C890.000000,602.129517 889.930664,616.784241 890.045349,631.437500 
	C890.076782,635.456543 888.509216,637.128235 884.465942,637.037292 
	C872.060486,636.758179 874.106873,638.625977 874.026306,626.932068 
	C873.919739,611.471313 874.000000,596.009216 874.000000,580.000000 
	C870.511414,580.000000 867.240356,580.002258 863.969360,579.998657 
	C862.970337,579.997559 861.169861,580.208191 861.092651,579.936462 
	C859.948242,575.909912 858.638672,571.848572 858.322449,567.722351 
	C858.237000,566.606445 861.292236,564.217407 862.958862,564.167236 
	C873.773132,563.841309 884.602051,564.000061 895.912598,564.000000 
z"/>
<path fill="#FFFFFF" opacity="1.000000" stroke="none" 
	d="
M499.001770,565.000000 
	C507.224762,564.667969 514.946167,564.183228 522.672546,564.084229 
	C525.496399,564.048035 528.116211,564.938110 528.036682,568.860413 
	C527.762390,582.388855 529.654602,579.730774 517.613892,579.996033 
	C516.293152,580.025146 514.971252,580.000000 513.239258,580.000000 
	C513.155579,581.533875 513.011597,582.960327 513.010132,584.386902 
	C512.994019,600.201233 512.800232,616.019775 513.140137,631.826843 
	C513.225403,635.789734 511.460510,637.214294 508.409882,637.747070 
	C505.825226,638.198547 503.078156,638.235229 500.471191,637.909424 
	C497.397339,637.525269 496.949707,635.120117 496.963104,632.366089 
	C497.039368,616.718628 497.000031,601.070557 497.000000,585.422729 
	C497.000000,583.787048 497.000000,582.151428 497.000000,580.123047 
	C492.001831,580.123047 487.254425,580.123047 481.894226,580.123047 
	C481.894226,574.882019 481.894226,570.037476 481.894226,565.000000 
	C487.867188,565.000000 493.184662,565.000000 499.001770,565.000000 
z"/>
<path fill="#FFFFFF" opacity="1.000000" stroke="none" 
	d="
M319.000000,661.880066 
	C319.000000,620.782043 318.999969,580.169373 319.000092,539.556641 
	C319.000092,538.391541 318.831207,537.191284 319.061737,536.073608 
	C319.215759,535.327026 319.938904,534.697815 320.407318,534.016113 
	C320.937378,534.635925 321.726807,535.180847 321.932800,535.894226 
	C322.198975,536.816284 321.999908,537.872925 321.999908,538.871582 
	C322.000031,580.316528 322.000000,621.761414 322.000000,663.206360 
	C322.000000,663.705688 322.148926,664.267395 321.971069,664.692261 
	C321.499237,665.819336 320.886230,666.887329 320.329407,667.978882 
	C319.886322,666.939941 319.324432,665.932251 319.039978,664.851562 
	C318.835144,664.073242 319.000031,663.197571 319.000000,661.880066 
z"/>
<path fill="#000000" opacity="1.000000" stroke="none" 
	d="
M232.763489,622.000000 
	C221.832001,624.261719 215.777374,619.643005 211.756271,610.111938 
	C210.321777,606.711792 209.448898,604.603333 211.751450,601.502258 
	C213.640121,598.958618 214.897354,595.943542 216.411896,593.125366 
	C218.096832,589.990051 220.371384,588.491089 224.238754,588.893188 
	C228.670517,589.354065 233.187042,589.000000 237.375778,589.000000 
	C239.573883,592.919800 241.192139,596.898987 243.764160,600.115601 
	C246.985031,604.143860 246.559982,607.587708 243.939011,611.478516 
	C242.421249,613.731689 241.276398,616.232300 239.854843,618.554932 
	C238.361710,620.994507 236.509827,622.912659 232.763489,622.000000 
z"/>
<path fill="#000000" opacity="1.000000" stroke="none" 
	d="
M228.237991,638.636841 
	C226.735901,635.780579 225.442245,633.244202 223.968384,630.354431 
	C237.300095,630.354431 250.463303,630.354431 264.342834,630.354431 
	C256.854431,640.734863 247.025024,646.610779 234.830887,649.062012 
	C232.688400,645.670898 230.567413,642.313782 228.237991,638.636841 
z"/>
<path fill="#000000" opacity="1.000000" stroke="none" 
	d="
M198.950531,589.000000 
	C202.427643,589.000000 205.421722,589.000000 209.155334,589.000000 
	C202.354324,600.830688 195.761124,612.299866 189.056580,623.962769 
	C184.381134,616.609863 181.752182,602.941345 187.617493,589.000000 
	C191.171860,589.000000 194.819687,589.000000 198.950531,589.000000 
z"/>
<path fill="#000000" opacity="1.000000" stroke="none" 
	d="
M238.741577,574.318115 
	C236.302963,570.317322 234.088989,566.622742 231.831009,562.854675 
	C239.671753,561.289490 254.824509,568.197021 262.848816,578.657898 
	C259.206024,584.802673 255.551895,590.966553 251.729538,597.414246 
	C247.251968,589.419189 243.109085,582.021729 238.741577,574.318115 
z"/>
<path fill="#000000" opacity="1.000000" stroke="none" 
	d="
M202.827286,569.675293 
	C209.029770,566.750732 214.981812,564.100830 221.320557,561.278809 
	C225.139008,567.994568 228.660492,574.187988 232.429321,580.816406 
	C218.676834,580.816406 205.614227,580.816406 190.926178,580.816406 
	C195.399811,576.643982 198.988327,573.296997 202.827286,569.675293 
z"/>
<path fill="#000000" opacity="1.000000" stroke="none" 
	d="
M214.764587,647.322693 
	C206.368271,645.183838 200.251572,640.275330 194.887848,634.268921 
	C194.327530,633.641418 193.816559,632.233032 194.135559,631.671021 
	C197.349655,626.008179 200.741852,620.446411 204.374649,614.369995 
	C211.268692,626.137390 217.728378,637.163391 224.891907,649.390747 
	C220.853622,648.652771 217.965179,648.124878 214.764587,647.322693 
z"/>
<path fill="#000000" opacity="1.000000" stroke="none" 
	d="
M263.723267,593.717834 
	C265.154480,591.349670 266.346313,589.275391 267.631226,587.039124 
	C272.466095,597.459412 273.348846,607.978516 269.999023,618.839233 
	C269.293396,621.127014 268.138214,622.174133 265.506775,622.072510 
	C259.534332,621.841980 253.546890,621.999939 247.210342,621.999939 
	C252.724350,612.516602 258.104126,603.264160 263.723267,593.717834 
z"/>
<path fill="#000000" opacity="1.000000" stroke="none" 
	d="
M928.531982,582.987427 
	C931.581665,578.118958 936.520020,577.770996 940.111572,579.447571 
	C942.849121,580.725464 945.553955,585.148315 945.710205,588.299194 
	C946.164429,597.460571 945.586792,606.705444 944.888550,615.877563 
	C944.559875,620.195984 939.797791,623.615967 935.101685,622.775146 
	C931.330444,622.099915 927.961121,619.818665 927.996765,615.032471 
	C928.075623,604.440918 928.144836,593.849365 928.531982,582.987427 
z"/>
<path fill="#000000" opacity="1.000000" stroke="none" 
	d="
M456.034424,583.176514 
	C456.728424,586.366089 457.805664,589.131714 457.912842,591.934448 
	C458.178284,598.873352 458.073059,605.830261 457.978912,612.778076 
	C457.888885,619.422058 453.930206,623.383972 447.749512,622.960571 
	C444.351410,622.727722 441.873810,621.572449 440.806854,617.538940 
	C437.980255,606.853088 438.522095,596.165649 440.394135,585.556519 
	C440.823883,583.121216 443.714233,580.064941 446.118408,579.284241 
	C449.602722,578.152588 453.599304,579.032837 456.034424,583.176514 
z"/>
<path fill="#000000" opacity="1.000000" stroke="none" 
	d="
M550.000000,597.044006 
	C550.332092,592.835083 550.617676,589.113037 551.008545,585.402039 
	C551.441040,581.295654 554.402466,579.491455 557.927429,579.108582 
	C561.470703,578.723755 565.221619,579.204651 566.681335,583.349548 
	C567.681885,586.190613 568.841980,589.178345 568.882141,592.114807 
	C568.983093,599.503906 569.140259,606.998718 568.049866,614.267273 
	C566.983154,621.377380 562.967834,623.841309 556.860962,622.998230 
	C553.270630,622.502563 550.140686,617.590576 550.021240,611.982239 
	C549.918823,607.168762 550.000000,602.351379 550.000000,597.044006 
z"/>
</svg>